<svg xmlns="http://www.w3.org/2000/svg" xml:space="preserve" width="586.45642" height="566.52563" viewBox="0 0 586.45642 566.52563"><path d="M0 0c-59.157 6.244-100.504 36.696-124.94 90.822-3.559-.991-6.786-2.848-9.754-5.138-6.97-5.378-10.719-12.365-10.68-21.325.039-8.865 3.416-16.503 8.33-23.597 1.643-2.372 3.552-4.559 5.449-6.968-.197-.755-.408-1.572-.624-2.387-1.04-3.937-2.237-7.84-3.09-11.818-1.757-8.188-2.252-16.449.679-24.458 5.272-14.405 15.299-24.286 29.377-30.267 11.489-4.881 22.955-5.206 34.311.044 4.85 2.242 9.392 5.159 14.025 7.853 1.741 1.012 3.345 2.261 4.954 3.364 1.199-.521 2.171-.969 3.162-1.37 8.829-3.573 17.893-5.271 27.373-3.226C-8.052-25.584.312-13.929 0 0m99.96 254.134c21.385-18.015 36.622-39.969 45.232-66.358 8.635-26.464 9.136-53.264 2.519-80.5 2.467-.498 4.527-1.087 6.625-1.31 10.923-1.16 19.871 2.323 26.296 11.488 2.622 3.74 4.255 7.92 5.358 12.331 1.635 6.544 1.566 13.17.952 19.519 4.708 4.1 9.385 7.883 13.735 12.012 14.927 14.164 16.816 33.042 9.652 51.34-3.655 9.337-9.375 17.403-18.12 22.868-7.87 4.918-16.654 6.672-25.751 7.247-3.31.21-6.627.308-9.968.459-.722 1.118-1.368 2.093-1.989 3.084-4.043 6.46-8.998 12.055-15.564 16.046-6.337 3.85-13.107 5.91-20.586 4.273-7.695-1.686-13.477-6.19-18.391-12.499m-41.576 60.442c-2.567 6.042-4.674 11.683-7.316 17.061-4.069 8.281-9.88 15.117-18.315 19.277-9.549 4.71-19.645 6.768-30.273 5.313-6.954-.952-13.656-2.823-19.73-6.519-7.901-4.807-13.299-11.789-17.081-20.06-2.224-4.864-4.085-9.894-6.168-14.996-1.899-.494-3.988-.96-6.031-1.583-9.029-2.751-16.99-7.164-22.836-14.833-7.734-10.147-6.516-24.159 1.378-33.735 23.495 14.632 49.031 22.21 76.827 22.23 27.89.019 53.498-7.678 77.132-22.361 2.533 3.319 4.044 6.733 5.153 10.332 2.778 9.02.988 17.173-4.791 24.525-2.895 3.681-6.525 6.502-10.521 8.899-5.495 3.295-11.532 5.117-17.428 6.45m83.908-223.741c-10.556-25.82-26.863-47.018-49.309-63.365C70.493 11.091 45.208 2.21 17.289.281c.268-2.242.42-3.937.679-5.615 1.809-11.717 9.531-20.379 20.627-23.024 6.275-1.496 12.601-1.369 18.817.241 4.231 1.095 8.347 2.634 12.173 3.864 5.802-3.408 11.318-6.958 17.113-9.974 7.603-3.956 15.831-5.716 24.353-4.309 14.411 2.379 26.067 9.522 34.825 21.286 7.021 9.429 9.887 19.961 7.94 31.576-1.097 6.536-2.738 12.98-4.234 19.93.519.613 1.426 1.668 2.317 2.737 5.098 6.116 8.835 12.926 10.58 20.755 3.524 15.807-5.875 28.629-20.187 33.087m-311.471 58.317c-.083-.988-.217-2.37-.312-3.755-.648-9.435.868-18.417 5.747-26.647 7.554-12.743 22.609-15.466 33.406-11.145-12.2 58.058 3.562 107.05 48.114 146.933-2.09 2.068-3.935 4.165-6.05 5.939-9.121 7.648-20.107 8.759-30.639 3.207-5.607-2.955-10.269-7.053-14.105-12.062-2.015-2.631-3.809-5.432-5.76-8.239-5.17-.397-10.418-.67-15.635-1.225-14.564-1.55-25.905-8.249-33.801-20.832-6.681-10.646-9.133-22.18-7.939-34.49.927-9.548 5.324-17.662 12.085-24.347 4.571-4.52 9.572-8.605 14.889-13.337M8.862 6.306c75.246-.121 136.93 61.516 137.196 136.678.261 73.98-59.39 137.274-136.536 137.644-76.295.367-137.773-61.244-137.826-137.011C-128.357 66.241-65.108 6.162 8.862 6.306m156.33 24.287c9.054-29.018 1.049-52.67-22.039-71.658-25.224-16.253-50.28-16.711-75.146.867-3.947-1.033-7.856-2.161-11.816-3.068-6.764-1.55-13.621-1.967-20.467-.709-10.978 2.017-18.711 8.639-24.566 17.793a88 88 0 0 1-1.771 2.683c-.107.154-.362.205-.783.427-.672-1.03-1.362-2.075-2.04-3.128C.62-35.439-7.215-42.112-18.344-44.028c-7.622-1.312-15.197-.606-22.659 1.334-3.007.782-5.989 1.658-9.163 2.542-24.928-17.643-50.173-17.264-75.548-.679-22.987 18.983-30.651 42.668-21.853 71.143-2.768 4.488-5.571 8.689-8.017 13.089-2.993 5.384-4.99 11.154-5.584 17.347-.964 10.057 2.149 18.844 8.288 26.691 1.173 1.5 2.376 2.977 3.757 4.704-2.083.578-3.825 1.055-5.563 1.545-15.804 4.452-24.912 15.008-27.7 30.982-1.029 5.893-1.25 11.927-1.892 18.433-24.205 17.753-31.854 42.006-23.662 70.954 3.725 13.161 12.022 23.934 23.342 32.013 11.253 8.032 23.988 11.204 37.174 10.991 4.167 4.73 7.805 9.258 11.864 13.37 6.005 6.083 13.089 10.391 21.738 11.72 7.102 1.091 13.891-.087 20.527-2.585l4.395-1.654c0 1.6.074 2.868-.011 4.125-1.28 18.735 7.413 31.415 23.955 39.211 4.447 2.095 9.098 3.759 13.782 5.672 9.531 28.288 29.641 42.774 59.254 44.647 30.37-1.234 51-15.734 60.929-44.813 3.712-1.422 7.465-2.715 11.099-4.285 6.662-2.876 12.793-6.587 17.698-12.068 5.115-5.716 8.049-12.398 8.616-20.04.229-3.088.091-6.204.115-9.307.007-.926.001-1.851.001-3.053 1.128.345 1.954.524 2.722.844 18.67 7.79 33.556 3.045 46.59-10.898 3.075-3.289 5.777-6.926 8.911-10.718 30.768-.292 51.065-15.726 61.553-44.675 6.837-28.494-.614-51.97-24.636-69.692-.158-3.624-.253-7.269-.49-10.905-.385-5.93-1.61-11.69-3.913-17.182-5.027-11.99-14.487-18.537-26.722-21.645-1.108-.281-2.207-.592-3.722-1 1.132-1.388 2.003-2.449 2.866-3.517 5.03-6.226 8.493-13.112 9.272-21.224.633-6.599-.587-12.904-3.271-18.82-2.162-4.768-4.999-9.234-7.613-13.79-.85-1.48-1.941-2.821-2.893-4.186" style="fill:#b19837;fill-opacity:1;fill-rule:nonzero;stroke:none" transform="matrix(1.33333 0 0 -1.33333 281.473 495.423)"/><path d="M0 0v12.239h6.036V-.403c19.347.479 37.232 5.029 53.932 13.916 30.685 16.327 51.723 41.047 61.716 74.339 11.265 37.524 5.755 73.091-16.297 105.451-22.044 32.346-53.34 49.898-92.258 54.249-.069 1.118-.172 2.061-.173 3.003-.002.945.096 1.89.15 2.834 60.985-3.907 118.081-54.857 120.092-126.141C135.224 55.429 79.165-4.035 7.631-6.586c-71.289-2.543-129.458 51.771-134.558 119.977-5.706 76.308 52.44 135.11 119.553 140.08v-5.813c-45.337-5.632-79.674-27.981-100.692-68.935-14.803-28.844-17.247-59.386-7.877-90.442C-96.985 25.448-38.871-1.046 0 0" style="fill:#b19837;fill-opacity:1;fill-rule:nonzero;stroke:none" transform="matrix(1.33333 0 0 -1.33333 289.36 468.992)"/><path d="M0 0v12.464h6.204V.141c43.06-2.831 76.235-21.99 98.369-58.94 14.108-23.55 18.56-49.36 14.401-76.355-9.197-59.697-59.627-95.962-105.671-98.813v5.716c39.507 5.17 69.647 24.732 88.491 60.244 12.486 23.532 15.662 48.723 9.706 74.732C99.09-39.076 49.822-2.377-5.298-6.604c-54.699-4.195-95.972-46.888-101.837-97.519-3.572-30.842 4.397-58.654 23.904-82.818 19.493-24.146 45.1-37.521 76.084-41.157v-5.723c-43.891 2.08-96.125 37.656-105.481 98.03-5.372 34.665 3.095 66.021 25.501 93.072C-64.738-15.689-35.48-1.857 0 0" style="fill:#b19837;fill-opacity:1;fill-rule:nonzero;stroke:none" transform="matrix(1.33333 0 0 -1.33333 289.154 147.66)"/><path d="M0 0c-53.594.141-97.328-43.179-98.293-96.239-.987-54.269 42.801-99.606 97.601-99.824 54.092-.215 98.268 43.496 98.448 97.688C97.938-43.317 53.003-.077 0 0m-.198-202.233c-56.908-.083-103.525 45.803-104.281 102.753C-105.248-41.442-58.635 5.706-1.159 6.181c58.201.481 105.09-46.773 105.097-104.226.007-56.933-46.25-104.129-104.136-104.188" style="fill:#b19837;fill-opacity:1;fill-rule:nonzero;stroke:none" transform="matrix(1.33333 0 0 -1.33333 293.663 173.44)"/><path d="m0 0-.692.157C-6.998-23.424-13.403-46.979-19.645-70.85H0Zm-91.623.376-.642.143-19.088-71.371h19.73zm23.253-71.235c-.694 5.808-18.116 69.69-19.362 71.255v-71.255zm91.664-.015C22.502-64.492 5.185-1.134 3.9.389v-71.263ZM-.322 14.141h-37.124c-1.099-3.015-2.926-5.2-6.502-5.143-3.455.054-5.115 2.302-6.311 5.169h-37.014c.407-1.802.696-3.36 1.113-4.884a56360 56360 0 0 1 18.45-67.367 69 69 0 0 1 1.757-5.512c5.031-13.655-2.03-28.498-15.751-33.054-13.706-4.553-28.317 3.171-32.351 17.123-1.312 4.538-1.357 9.087-.052 13.657 3.506 12.27 7.027 24.536 10.444 36.831 3.676 13.228 7.245 26.485 10.847 39.733.278 1.023.457 2.072.725 3.311l-3.635.636-2.275 8.953 49.84 8.701v9.951h8.334l.461-9.965 49.771-8.691-2.298-8.938-3.505-.512c.078-.848.035-1.686.245-2.455 6.575-24.112 13.121-48.232 19.825-72.308 1.15-4.133 2.655-8.084 2.59-12.513-.183-12.659-10.207-23.686-22.72-24.705-13.576-1.105-25.316 7.92-27.514 20.891-.822 4.844.006 9.321 1.408 13.909 2.477 8.102 4.716 16.279 6.962 24.45 4.493 16.345 8.925 32.707 13.376 49.063.305 1.119.557 2.252.904 3.669" style="fill:#b19837;fill-opacity:1;fill-rule:nonzero;stroke:none" transform="matrix(1.33333 0 0 -1.33333 351.723 250.238)"/></svg>